<?xml version="1.0" encoding="utf-8"?>
<!-- Generator: Adobe Illustrator 15.0.0, SVG Export Plug-In . SVG Version: 6.00 Build 0)  -->
<!DOCTYPE svg PUBLIC "-//W3C//DTD SVG 1.1//EN" "http://www.w3.org/Graphics/SVG/1.1/DTD/svg11.dtd">
<svg version="1.1" id="Calque_1" xmlns="http://www.w3.org/2000/svg" xmlns:xlink="http://www.w3.org/1999/xlink" x="0px" y="0px"
	 width="264.473px" height="264.566px" viewBox="-51.399 -1 264.473 264.566" enable-background="new -51.399 -1 264.473 264.566"
	 xml:space="preserve">
<g>
	<polygon fill="#FD6274" points="66.059,248.879 80.837,263.567 95.525,248.879 	"/>
	<polygon fill="#FD6274" points="52.804,183.856 52.804,47.365 9.366,47.365 9.366,184.305 31.309,166.392 	"/>
	<polygon fill="#FD6274" points="105.199,194.515 80.57,174.453 55.939,194.515 31.309,174.453 9.366,192.455 59.791,242.609 
		101.884,242.609 152.308,192.455 129.828,174.453 	"/>
	<path fill="#FD6274" d="M134.664-1H27.01C17.249-1,9.366,7.777,9.366,18.704v22.391h142.94V18.704
		C152.308,7.777,144.425-1,134.664-1z"/>
	<polygon fill="#FD6274" points="102.064,183.856 102.064,47.365 59.073,47.365 59.073,183.856 80.57,166.392 	"/>
	<polygon fill="#FD6274" points="108.333,183.856 129.828,166.392 152.308,184.663 152.308,47.365 108.333,47.365 	"/>
</g>
</svg>
