<?xml version="1.0" encoding="utf-8"?>
<!-- Generator: Adobe Illustrator 15.0.0, SVG Export Plug-In . SVG Version: 6.00 Build 0)  -->
<!DOCTYPE svg PUBLIC "-//W3C//DTD SVG 1.1//EN" "http://www.w3.org/Graphics/SVG/1.1/DTD/svg11.dtd">
<svg version="1.1" id="Calque_1" xmlns="http://www.w3.org/2000/svg" xmlns:xlink="http://www.w3.org/1999/xlink" x="0px" y="0px"
	 width="123.657px" height="130.682px" viewBox="174.5 167.297 123.657 130.682"
	 enable-background="new 174.5 167.297 123.657 130.682" xml:space="preserve">
<g>
	<path fill="#313131" d="M270.048,167.297h-1.024H258.69h-2.877v89.488c-5.217-2.117-11.443-2.85-17.912-1.562
		c-14.68,2.944-24.697,14.742-22.368,26.361c2.323,11.624,16.104,18.67,30.791,15.726c12.416-2.484,21.414-11.332,22.497-21.04h0.2
		v-72.45c19.317,3.062,22.168,18.315,19.813,24.697c-0.889,2.43,0.686,4.257,3.677,0
		C313.869,198.074,267.566,187.388,270.048,167.297z"/>
	<g>
		<path fill="#313131" d="M237.386,228.715H184.11V239.8h53.278v-11.085H237.386z"/>
	</g>
	<g>
		<path fill="#313131" d="M237.386,208.171H184.11v11.083h53.278v-11.083H237.386z"/>
	</g>
	<g>
		<path fill="#313131" d="M237.386,187.626H184.11v11.085h53.278v-11.085H237.386z"/>
	</g>
</g>
</svg>
