<?xml version="1.0" encoding="utf-8"?>
<!-- Generator: Adobe Illustrator 15.0.0, SVG Export Plug-In . SVG Version: 6.00 Build 0)  -->
<!DOCTYPE svg PUBLIC "-//W3C//DTD SVG 1.1//EN" "http://www.w3.org/Graphics/SVG/1.1/DTD/svg11.dtd">
<svg version="1.1" id="Calque_1" xmlns="http://www.w3.org/2000/svg" xmlns:xlink="http://www.w3.org/1999/xlink" x="0px" y="0px"
	 width="258px" height="151px" viewBox="0 0 258 151" enable-background="new 0 0 258 151" xml:space="preserve">
<path id="spike-right" fill="#1C1F20" d="M256.799,75.505c-28.658,13.788-35.412,23.288-59.77,23.288
	c-8.549,0-16.836-1.834-24.463-5.173c4.752,9.605,8.314,17.893,8.629,25.808c0.316,7.494-2.295,14.673-9.551,22.193
	c-20.398,20.397-41.033,4.829-40.533-20.873c11.875,9.131,19.119,1.397,18.498-8.233c-0.605-9.448-20.953-17.785-38.104-19.316
	c-1.003,4.421-4.935,7.706-9.66,7.706h-0.75c-4.962,0-9.026-3.603-9.766-8.34c-3.113-1.45-18.167-7.744-24.935,4.513
	c-5.663,10.265,4.42,10.159,12.336,4.829c0.328,14.987-13.433,24.066-27.038,12.165c-4.829-4.406-6.569-8.575-6.359-12.957
	c0.04-0.766,0.158-1.557,0.332-2.348l-5.978,1.979c-3.312,1.108-6.306-2.705-6.452-6.227H13.551
	c-0.726,3.244-3.602,5.647-7.059,5.647H0V50.832h6.493c3.457,0,6.333,2.415,7.059,5.647h19.685c0.146-3.522,3.141-7.31,6.452-6.214
	l5.978,1.966c-0.173-0.779-0.292-1.571-0.332-2.349c-0.21-4.381,1.53-8.55,6.359-12.944c13.604-11.901,27.366-2.823,27.038,12.166
	c-7.917-5.331-18-5.449-12.336,4.829c6.767,12.244,21.821,5.964,24.935,4.513c0.74-4.75,4.804-8.366,9.766-8.366h0.75
	c4.738,0,8.669,3.299,9.66,7.745c17.15-1.544,37.498-9.882,38.104-19.315c0.621-9.632-6.623-17.403-18.498-8.26
	c-0.5-25.703,20.135-41.272,40.533-20.86c14.936,15.464,10.135,29.356,0.896,48c7.652-3.338,15.939-5.159,24.488-5.171
	C221.387,52.218,228.141,61.716,256.799,75.505z"/>
</svg>
