<?xml version="1.0" encoding="utf-8"?>
<!-- Generator: Adobe Illustrator 15.0.0, SVG Export Plug-In . SVG Version: 6.00 Build 0)  -->
<!DOCTYPE svg PUBLIC "-//W3C//DTD SVG 1.1//EN" "http://www.w3.org/Graphics/SVG/1.1/DTD/svg11.dtd">
<svg version="1.1"
	 id="svg5177" xmlns:inkscape="http://www.inkscape.org/namespaces/inkscape" xmlns:sodipodi="http://sodipodi.sourceforge.net/DTD/sodipodi-0.dtd" sodipodi:docname="_svgclean2.svg" xmlns:rdf="http://www.w3.org/1999/02/22-rdf-syntax-ns#" inkscape:version="0.48.3.1 r9886" xmlns:cc="http://creativecommons.org/ns#" xmlns:dc="http://purl.org/dc/elements/1.1/"
	 xmlns="http://www.w3.org/2000/svg" xmlns:xlink="http://www.w3.org/1999/xlink" x="0px" y="0px" width="30px" height="11.833px"
	 viewBox="0 0 30 11.833" enable-background="new 0 0 30 11.833" xml:space="preserve">
<sodipodi:namedview  inkscape:window-maximized="0" pagecolor="#ffffff" id="base" inkscape:pageshadow="2" inkscape:window-y="102" fit-margin-top="0" fit-margin-left="0" inkscape:window-width="1024" inkscape:pageopacity="0.0" inkscape:cx="83.19479" inkscape:cy="-1000.3632" fit-margin-right="0" borderopacity="1.0" inkscape:current-layer="layer1" inkscape:zoom="4" bordercolor="#666666" inkscape:window-x="533" inkscape:window-height="768" showgrid="false" inkscape:document-units="px" fit-margin-bottom="0">
	</sodipodi:namedview>
<g id="layer1" transform="translate(-291.81 -671.28)" inkscape:groupmode="layer" inkscape:label="Layer 1">
	
		<linearGradient id="path1300_1_" gradientUnits="userSpaceOnUse" x1="1936.6948" y1="-1206.4231" x2="2080.48" y2="-1206.4231" gradientTransform="matrix(0.2087 0 0 -0.2087 -112.2867 425.4563)">
		<stop  offset="0" style="stop-color:#000000"/>
		<stop  offset="1" style="stop-color:#58595B"/>
	</linearGradient>
	<path id="path1300" inkscape:connector-curvature="0" fill="url(#path1300_1_)" d="M321.81,677.178
		c0,3.258-2.641,5.898-5.899,5.898h-18.203c-3.258,0-5.899-2.641-5.899-5.898s2.641-5.898,5.899-5.898h18.203
		C319.169,671.28,321.81,673.921,321.81,677.178z"/>
	
		<linearGradient id="path1307_1_" gradientUnits="userSpaceOnUse" x1="1937.6089" y1="-1206.425" x2="2079.5737" y2="-1206.425" gradientTransform="matrix(0.2087 0 0 -0.2087 -112.2867 425.4563)">
		<stop  offset="0" style="stop-color:#6D6E70"/>
		<stop  offset="1" style="stop-color:#BBBDBF"/>
	</linearGradient>
	<path id="path1307" inkscape:connector-curvature="0" fill="url(#path1307_1_)" d="M321.621,677.178
		c0,3.157-2.615,5.717-5.842,5.717H297.84c-3.226,0-5.841-2.561-5.841-5.717c0-3.157,2.615-5.716,5.841-5.716h17.938
		C319.005,671.463,321.621,674.022,321.621,677.178z"/>
	
		<linearGradient id="path1314_1_" gradientUnits="userSpaceOnUse" x1="1937.6089" y1="-1205.7356" x2="2079.5737" y2="-1205.7356" gradientTransform="matrix(0.2087 0 0 -0.2087 -112.2867 425.4563)">
		<stop  offset="0" style="stop-color:#A2A4A5"/>
		<stop  offset="1" style="stop-color:#D0D2D3"/>
	</linearGradient>
	<path id="path1314" inkscape:connector-curvature="0" fill="url(#path1314_1_)" d="M321.621,677.178
		c0,3.157-3.326,5.324-5.842,5.43H297.84c-2.513-0.105-5.841-2.272-5.841-5.43c0-3.157,2.615-5.716,5.841-5.716h17.938
		C319.005,671.463,321.621,674.022,321.621,677.178z"/>
	
		<linearGradient id="path1335_1_" gradientUnits="userSpaceOnUse" x1="2008.5933" y1="-1230.7341" x2="2008.5933" y2="-1178.5281" gradientTransform="matrix(0.2087 0 0 -0.2087 -112.2867 425.4563)">
		<stop  offset="0" style="stop-color:#000000"/>
		<stop  offset="0.1433" style="stop-color:#020202"/>
		<stop  offset="0.2192" style="stop-color:#0A0A0A"/>
		<stop  offset="0.2794" style="stop-color:#171718"/>
		<stop  offset="0.3312" style="stop-color:#2A2A2B"/>
		<stop  offset="0.3778" style="stop-color:#424344"/>
		<stop  offset="0.4199" style="stop-color:#5F6062"/>
		<stop  offset="0.4364" style="stop-color:#6D6E70"/>
		<stop  offset="1" style="stop-color:#FFFFFF"/>
	</linearGradient>
	<path id="path1335" inkscape:connector-curvature="0" fill="url(#path1335_1_)" d="M321.621,677.178
		c0,3.157-3.326,4.988-5.842,5.113H297.84c-2.513-0.125-5.841-1.956-5.841-5.113c0-3.157,2.615-5.716,5.841-5.716h17.938
		C319.005,671.463,321.621,674.022,321.621,677.178z"/>
	
		<radialGradient id="path1344_1_" cx="2008.1812" cy="-1174.387" r="127.2435" gradientTransform="matrix(0.2087 0 0 -0.2087 -112.2867 425.4563)" gradientUnits="userSpaceOnUse">
		<stop  offset="0.1455" style="stop-color:#FFFFFF"/>
		<stop  offset="0.5697" style="stop-color:#D4D4D4"/>
		<stop  offset="1" style="stop-color:#F3F3F3"/>
	</radialGradient>
	<path id="path1344" inkscape:connector-curvature="0" fill="url(#path1344_1_)" d="M315.778,671.464h-17.938
		c-3.226,0-5.841,2.559-5.841,5.716c0,0.3,0.031,0.587,0.087,0.861c5.757,0.216,3.259,0.333,9.656,0.333
		c6.952,0,13.62-0.139,19.8-0.391c0.05-0.258,0.077-0.525,0.077-0.804C321.619,674.023,319.003,671.464,315.778,671.464z"/>
	
		<linearGradient id="path1353_1_" gradientUnits="userSpaceOnUse" x1="2008.5894" y1="-1184.9236" x2="2008.5894" y2="-1227.8336" gradientTransform="matrix(0.2087 0 0 -0.2087 -112.2867 425.4563)">
		<stop  offset="0" style="stop-color:#000000"/>
		<stop  offset="0.4606" style="stop-color:#6D6E70"/>
		<stop  offset="1" style="stop-color:#FFFFFF"/>
	</linearGradient>
	<path id="path1353" inkscape:connector-curvature="0" fill="url(#path1353_1_)" d="M315.912,672.693h-18.203
		c-2.474,0-4.486,2.012-4.486,4.485s2.013,4.486,4.486,4.486h18.203c2.474,0,4.485-2.013,4.485-4.486
		S318.385,672.693,315.912,672.693z"/>
	
		<linearGradient id="path1394_1_" gradientUnits="userSpaceOnUse" x1="2023.2866" y1="-1177.0388" x2="1999.3755" y2="-1224.8522" gradientTransform="matrix(0.2087 0 0 -0.2087 -112.2867 425.4563)">
		<stop  offset="0" style="stop-color:#000000"/>
		<stop  offset="0.1216" style="stop-color:#030303"/>
		<stop  offset="0.1948" style="stop-color:#0B0B0B"/>
		<stop  offset="0.2552" style="stop-color:#191919"/>
		<stop  offset="0.3086" style="stop-color:#2D2D2E"/>
		<stop  offset="0.3574" style="stop-color:#474848"/>
		<stop  offset="0.4028" style="stop-color:#676868"/>
		<stop  offset="0.4457" style="stop-color:#8D8E8F"/>
		<stop  offset="0.4854" style="stop-color:#B8B9BA"/>
		<stop  offset="0.5212" style="stop-color:#E6E7E8"/>
		<stop  offset="0.5462" style="stop-color:#C7C8C9"/>
		<stop  offset="0.5882" style="stop-color:#99999A"/>
		<stop  offset="0.633" style="stop-color:#707071"/>
		<stop  offset="0.6797" style="stop-color:#4D4D4E"/>
		<stop  offset="0.729" style="stop-color:#313131"/>
		<stop  offset="0.7815" style="stop-color:#1B1B1B"/>
		<stop  offset="0.8391" style="stop-color:#0C0C0C"/>
		<stop  offset="0.9053" style="stop-color:#030303"/>
		<stop  offset="1" style="stop-color:#000000"/>
	</linearGradient>
	<path id="path1394" inkscape:connector-curvature="0" fill="url(#path1394_1_)" d="M315.789,672.832h-17.958
		c-2.452,0-4.445,1.951-4.445,4.347c0,2.397,1.993,4.347,4.445,4.347h17.958c2.451,0,4.445-1.949,4.445-4.347
		C320.234,674.783,318.24,672.832,315.789,672.832L315.789,672.832z"/>
	<path id="path1405" inkscape:connector-curvature="0" fill="#BE99F6" d="M315.64,672.983h-17.663c-2.425,0-4.396,1.882-4.396,4.196
		s1.971,4.197,4.396,4.197h17.663c2.424,0,4.396-1.883,4.396-4.197S318.064,672.983,315.64,672.983z"/>
	<path id="path1412" inkscape:connector-curvature="0" fill="#D3C1F4" d="M315.007,673.116h-16.396
		c-3.111,0-4.183,1.787-4.183,2.762c0,1.235,1.876,1.719,4.183,1.719h16.396c2.309,0,4.185-0.315,4.185-1.551
		C319.192,674.588,317.89,673.116,315.007,673.116z"/>
</g>
</svg>
