<?xml version="1.0" encoding="utf-8"?>
<!-- Generator: Adobe Illustrator 15.0.0, SVG Export Plug-In . SVG Version: 6.00 Build 0)  -->
<!DOCTYPE svg PUBLIC "-//W3C//DTD SVG 1.1//EN" "http://www.w3.org/Graphics/SVG/1.1/DTD/svg11.dtd">
<svg version="1.1" id="Calque_1" xmlns="http://www.w3.org/2000/svg" xmlns:xlink="http://www.w3.org/1999/xlink" x="0px" y="0px"
	 width="45px" height="45px" viewBox="0 0 45 45" enable-background="new 0 0 45 45" xml:space="preserve">
<polygon fill="#313131" points="4.92,17.749 4.92,27.283 13.312,27.283 19.797,33.768 19.797,11.263 13.312,17.749 "/>
<path fill="#313131" d="M28.95,22.516L28.95,22.516L28.95,22.516L28.95,22.516c-0.061-4.192-1.436-7.723-4.312-10.784
	c-1.012-1.076-2.628,0.544-1.619,1.618c2.467,2.625,3.589,5.579,3.643,9.166c-0.054,3.588-1.176,6.542-3.643,9.166
	c-1.009,1.075,0.607,2.696,1.619,1.618C27.515,30.239,28.89,26.709,28.95,22.516L28.95,22.516z"/>
<path fill="#313131" d="M34.673,22.516L34.673,22.516L34.673,22.516L34.673,22.516c-0.079-5.613-2.004-10.651-5.884-14.72
	c-1.02-1.071-2.636,0.55-1.618,1.617c3.465,3.634,5.143,8.093,5.214,13.103c-0.071,5.011-1.749,9.47-5.214,13.104
	c-1.018,1.067,0.599,2.688,1.618,1.617C32.669,33.167,34.594,28.129,34.673,22.516L34.673,22.516z"/>
<path fill="#313131" d="M40.395,22.516L40.395,22.516L40.395,22.516c-0.079-7.061-2.55-13.558-7.453-18.658
	c-1.023-1.065-2.642,0.554-1.618,1.618c4.486,4.667,6.711,10.58,6.782,17.04c-0.071,6.461-2.296,12.374-6.782,17.041
	c-1.023,1.063,0.594,2.684,1.618,1.618C37.845,36.074,40.315,29.578,40.395,22.516L40.395,22.516L40.395,22.516z"/>
</svg>
