<?xml version="1.0" encoding="utf-8"?>
<!-- Generator: Adobe Illustrator 15.0.0, SVG Export Plug-In . SVG Version: 6.00 Build 0)  -->
<!DOCTYPE svg PUBLIC "-//W3C//DTD SVG 1.1//EN" "http://www.w3.org/Graphics/SVG/1.1/DTD/svg11.dtd">
<svg version="1.1" id="Calque_1" xmlns="http://www.w3.org/2000/svg" xmlns:xlink="http://www.w3.org/1999/xlink" x="0px" y="0px"
	 width="45px" height="45px" viewBox="0 0 45 45" enable-background="new 0 0 45 45" xml:space="preserve">
<g>
	<polygon fill="#313131" points="5.934,29.83 5.934,14.898 31.203,14.898 28.467,18.516 30.254,19.867 34.012,14.898 34.015,14.898 
		34.827,13.824 34.015,12.75 34.012,12.75 30.254,7.783 28.467,9.134 31.203,12.75 3.786,12.75 3.786,31.979 8.191,31.979 
		7.379,30.904 8.191,29.83 	"/>
	<polygon fill="#313131" points="41.214,12.75 36.823,12.75 37.636,13.824 36.823,14.898 39.066,14.898 39.066,29.83 13.797,29.83 
		16.533,26.214 14.746,24.863 10.176,30.904 14.746,36.947 16.533,35.596 13.797,31.979 41.214,31.979 	"/>
</g>
</svg>
