<?xml version="1.0" encoding="utf-8"?>
<!-- Generator: Adobe Illustrator 15.0.0, SVG Export Plug-In . SVG Version: 6.00 Build 0)  -->
<!DOCTYPE svg PUBLIC "-//W3C//DTD SVG 1.1//EN" "http://www.w3.org/Graphics/SVG/1.1/DTD/svg11.dtd">
<svg version="1.1" id="Calque_1" xmlns="http://www.w3.org/2000/svg" xmlns:xlink="http://www.w3.org/1999/xlink" x="0px" y="0px"
	 width="45px" height="45px" viewBox="0 0 45 45" enable-background="new 0 0 45 45" xml:space="preserve">
<g>
	<polygon fill="#313131" points="34.624,26.215 37.326,29.786 33.648,29.786 23.675,22.365 33.648,14.945 37.326,14.945 
		34.624,18.517 36.411,19.867 40.982,13.826 36.411,7.783 34.624,9.135 37.326,12.705 32.907,12.705 21.798,20.97 10.688,12.705 
		4.018,12.705 4.018,14.945 9.947,14.945 19.921,22.365 9.947,29.786 4.018,29.786 4.018,32.025 10.688,32.025 21.798,23.762 
		32.907,32.025 37.326,32.025 34.624,35.597 36.411,36.948 40.982,30.905 36.411,24.864 	"/>
</g>
</svg>
