<?xml version="1.0" encoding="utf-8"?>
<!-- Generator: Adobe Illustrator 15.0.0, SVG Export Plug-In . SVG Version: 6.00 Build 0)  -->
<!DOCTYPE svg PUBLIC "-//W3C//DTD SVG 1.1//EN" "http://www.w3.org/Graphics/SVG/1.1/DTD/svg11.dtd">
<svg version="1.1" id="Calque_1" xmlns="http://www.w3.org/2000/svg" xmlns:xlink="http://www.w3.org/1999/xlink" x="0px" y="0px"
	 width="77px" height="83.25px" viewBox="31.5 29 77 83.25" enable-background="new 31.5 29 77 83.25" xml:space="preserve">
<g>
	<g>
		<path d="M100.67,31.168H49.81c-3.414,0-6.19,2.776-6.19,6.189v14.533h-5.194c-2.831,0-5.134,2.304-5.134,5.135v48.047
			c0,2.831,2.303,5.135,5.134,5.135c0.059,0,0.112-0.019,0.166-0.033c0.054,0.014,0.107,0.033,0.166,0.033h61.913
			c3.414,0,6.19-2.777,6.19-6.19V37.358C106.861,33.945,104.084,31.168,100.67,31.168z M34.62,105.073V57.025
			c0-2.099,1.707-3.806,3.805-3.806h5.194v20.669h-2.087c-0.367,0-0.664,0.297-0.664,0.665c0,0.367,0.297,0.664,0.664,0.664h2.087
			v6.88h-2.087c-0.367,0-0.664,0.297-0.664,0.665c0,0.367,0.297,0.664,0.664,0.664h2.087v6.882h-2.087
			c-0.367,0-0.664,0.297-0.664,0.665s0.297,0.664,0.664,0.664h2.087v6.88h-2.087c-0.367,0-0.664,0.297-0.664,0.665
			c0,0.367,0.297,0.664,0.664,0.664h2.087v4.172c0,2.681-2.181,4.862-4.862,4.862c-0.059,0-0.112,0.019-0.166,0.033
			c-0.054-0.014-0.107-0.033-0.166-0.033C36.327,108.879,34.62,107.172,34.62,105.073z M105.532,104.017
			c0,2.681-2.181,4.862-4.862,4.862H42.543c1.453-1.134,2.405-2.881,2.405-4.862v-4.833c0-0.001,0.001-0.002,0.001-0.002
			l-0.001-0.004v-8.203l0.001-0.003l-0.001-0.003v-8.204c0-0.001,0.001-0.002,0.001-0.002l-0.001-0.004v-8.202
			c0-0.002,0.001-0.002,0.001-0.002l-0.001-0.004V37.358c0-2.68,2.182-4.861,4.862-4.861h50.86c2.681,0,4.862,2.181,4.862,4.861
			V104.017z"/>
		<path d="M71.43,73.888H51.957c-0.367,0-0.664,0.297-0.664,0.665c0,0.367,0.297,0.664,0.664,0.664H71.43
			c0.367,0,0.664-0.297,0.664-0.664C72.094,74.186,71.797,73.888,71.43,73.888z"/>
		<path d="M98.611,73.888H79.115c-0.367,0-0.664,0.297-0.664,0.665c0,0.367,0.297,0.664,0.664,0.664h19.496
			c0.367,0,0.664-0.297,0.664-0.664C99.275,74.186,98.978,73.888,98.611,73.888z"/>
		<path d="M71.43,82.097H51.957c-0.367,0-0.664,0.297-0.664,0.665c0,0.367,0.297,0.664,0.664,0.664H71.43
			c0.367,0,0.664-0.297,0.664-0.664C72.094,82.395,71.797,82.097,71.43,82.097z"/>
		<path d="M98.611,82.097H79.115c-0.367,0-0.664,0.297-0.664,0.665c0,0.367,0.297,0.664,0.664,0.664h19.496
			c0.367,0,0.664-0.297,0.664-0.664C99.275,82.395,98.978,82.097,98.611,82.097z"/>
		<path d="M71.43,90.308H51.957c-0.367,0-0.664,0.297-0.664,0.665s0.297,0.664,0.664,0.664H71.43c0.367,0,0.664-0.297,0.664-0.664
			S71.797,90.308,71.43,90.308z"/>
		<path d="M98.611,90.308H79.115c-0.367,0-0.664,0.297-0.664,0.665s0.297,0.664,0.664,0.664h19.496c0.367,0,0.664-0.297,0.664-0.664
			S98.978,90.308,98.611,90.308z"/>
		<path d="M71.43,98.517H51.957c-0.367,0-0.664,0.297-0.664,0.665c0,0.367,0.297,0.664,0.664,0.664H71.43
			c0.367,0,0.664-0.297,0.664-0.664C72.094,98.814,71.797,98.517,71.43,98.517z"/>
		<path d="M98.611,98.517H79.115c-0.367,0-0.664,0.297-0.664,0.665c0,0.367,0.297,0.664,0.664,0.664h19.496
			c0.367,0,0.664-0.297,0.664-0.664C99.275,98.814,98.978,98.517,98.611,98.517z"/>
		<path d="M97.282,41.53H53.274c-1.099,0-1.993,0.894-1.993,1.992v19.339c0,1.099,0.894,1.993,1.993,1.993h44.008
			c1.099,0,1.993-0.894,1.993-1.993V43.522C99.275,42.423,98.381,41.53,97.282,41.53z M97.947,62.861
			c0,0.366-0.298,0.665-0.665,0.665H53.274c-0.367,0-0.665-0.298-0.665-0.665V43.522c0-0.365,0.298-0.664,0.665-0.664h44.008
			c0.367,0,0.665,0.299,0.665,0.664V62.861z"/>
	</g>
</g>
</svg>
