<?xml version="1.0" encoding="utf-8"?>
<!-- Generator: Adobe Illustrator 15.0.0, SVG Export Plug-In . SVG Version: 6.00 Build 0)  -->
<!DOCTYPE svg PUBLIC "-//W3C//DTD SVG 1.1//EN" "http://www.w3.org/Graphics/SVG/1.1/DTD/svg11.dtd">
<svg version="1.1" id="Calque_1" xmlns="http://www.w3.org/2000/svg" xmlns:xlink="http://www.w3.org/1999/xlink" x="0px" y="0px"
	 width="258px" height="151px" viewBox="0 0 258 151" enable-background="new 0 0 258 151" xml:space="preserve">
<path id="spike-left" fill="#CED2D1" d="M1.2,75.492c28.644,13.787,35.4,23.287,59.77,23.287c8.537,0,16.835-1.82,24.461-5.157
	c-4.749,9.578-8.311,17.905-8.642,25.793c-0.303,7.521,2.296,14.673,9.565,22.22c20.387,20.372,41.022,4.805,40.533-20.871
	c-11.875,9.129-19.118,1.369-18.499-8.262c0.607-9.447,20.952-17.771,38.105-19.314c1.004,4.432,4.923,7.73,9.659,7.73h0.752
	c4.961,0,8.998-3.616,9.764-8.365c3.113-1.438,18.182-7.732,24.938,4.525c5.646,10.265-4.433,10.146-12.35,4.83
	c-0.316,14.974,13.432,24.052,27.047,12.15c4.828-4.396,6.572-8.562,6.36-12.932c-0.056-0.791-0.159-1.568-0.317-2.373l5.963,1.979
	c3.326,1.107,6.311-2.691,6.439-6.228h19.688c0.738,3.245,3.614,5.659,7.071,5.659H258V50.819h-6.492
	c-3.457,0-6.333,2.414-7.07,5.66h-19.688c-0.13-3.536-3.113-7.31-6.438-6.227l-5.963,1.979c0.157-0.793,0.262-1.584,0.316-2.362
	c0.212-4.367-1.532-8.537-6.359-12.944c-13.617-11.889-27.363-2.824-27.048,12.165c7.917-5.331,17.996-5.436,12.351,4.829
	c-6.756,12.258-21.824,5.977-24.938,4.525c-0.767-4.75-4.803-8.378-9.763-8.378h-0.754c-4.735,0-8.668,3.312-9.658,7.745
	c-17.153-1.542-37.498-9.868-38.105-19.302c-0.619-9.646,6.624-17.404,18.499-8.273c0.489-25.689-20.146-41.259-40.533-20.848
	c-14.921,15.464-10.132,29.344-0.908,48.001c-7.626-3.352-15.939-5.159-24.476-5.172C36.6,52.218,29.844,61.717,1.2,75.492z"/>
</svg>
